<svg width="32" height="33" viewBox="0 0 32 33" fill="none" xmlns="http://www.w3.org/2000/svg">
<path d="M16.0102 9.69385C11.9779 9.69385 8.70831 12.9833 8.70831 17.0401C8.70831 20.7232 11.4052 23.7645 14.9186 24.2957V18.9869H13.1119V17.056H14.9186V15.7709C14.9186 13.6436 15.9487 12.7101 17.7062 12.7101C18.5476 12.7101 18.9933 12.7731 19.2037 12.8013V14.4867H18.005C17.2591 14.4867 16.9985 15.1988 16.9985 16.0006V17.056H19.1849L18.8886 18.9869H16.9985V24.311C20.5624 23.825 23.3121 20.7593 23.3121 17.0401C23.3121 12.9833 20.0428 9.69385 16.0102 9.69385Z" fill="#00B2FF"/>
<rect x="0.511536" y="1.49658" width="30.0606" height="30.0606" rx="3.5" stroke="#D9D9D9"/>
</svg>
