<svg width="33" height="33" viewBox="0 0 33 33" fill="none" xmlns="http://www.w3.org/2000/svg">
<path d="M13.8624 10.936C11.8275 10.936 10.1717 12.5943 10.1717 14.6316V19.9097C10.1717 21.9467 11.8284 23.6042 13.8639 23.6042H19.1371C21.1723 23.6042 22.8283 21.946 22.8283 19.9087V14.6301C22.8283 12.5933 21.1716 10.936 19.1361 10.936H13.8624ZM20.297 12.9629C20.5765 12.9629 20.8033 13.19 20.8033 13.4697C20.8033 13.7494 20.5765 13.9764 20.297 13.9764C20.0175 13.9764 19.7907 13.7494 19.7907 13.4697C19.7907 13.19 20.0175 12.9629 20.297 12.9629ZM16.5 13.9764C18.315 13.9764 19.7907 15.4535 19.7907 17.2701C19.7907 19.0867 18.3147 20.5639 16.5 20.5639C14.685 20.5639 13.2093 19.0865 13.2093 17.2701C13.2093 15.4538 14.685 13.9764 16.5 13.9764ZM16.5 14.9899C15.2417 14.9899 14.2218 16.0107 14.2218 17.2701C14.2218 18.5296 15.2417 19.5504 16.5 19.5504C17.7583 19.5504 18.7782 18.5296 18.7782 17.2701C18.7782 16.0107 17.7583 14.9899 16.5 14.9899Z" fill="#D23939"/>
<rect x="1.48114" y="1.49658" width="30.0606" height="30.0606" rx="3.5" stroke="#D9D9D9"/>
</svg>
