<svg width="18" height="12" viewBox="0 0 18 12" fill="none" xmlns="http://www.w3.org/2000/svg">
<path d="M16.6393 4.03894H2.7529V1.34779C2.7529 0.834285 3.16811 0.416559 3.6782 0.416559C4.06688 0.416559 4.41682 0.663861 4.5488 1.03206L4.61608 1.21979L4.22755 1.36074C4.08318 1.41304 3.96782 1.51883 3.90256 1.65861C3.8373 1.79853 3.82994 1.9556 3.8822 2.10062L4.1005 2.71002C4.11912 2.76204 4.15753 2.80447 4.20705 2.82801C4.23491 2.84109 4.26509 2.84777 4.29512 2.84777C4.3188 2.84777 4.34262 2.8437 4.36528 2.83542L6.22328 2.16107C6.27496 2.14233 6.31713 2.10368 6.34051 2.05369C6.36376 2.00386 6.36636 1.94646 6.34773 1.89444L6.12929 1.28504C6.07717 1.13974 5.97206 1.02379 5.83332 0.958111C5.69443 0.892146 5.53821 0.884877 5.39427 0.937624L5.00544 1.07871L4.93802 0.890837C4.74715 0.358024 4.24084 0 3.67819 0C2.93958 0 2.33897 0.604604 2.33897 1.34781V4.03895H2.10364C1.77778 4.03895 1.47184 4.16624 1.24069 4.39858C1.01156 4.63251 0.885376 4.94013 0.885376 5.26501C0.885376 5.57073 0.999144 5.86147 1.1968 6.08335C1.19665 6.08727 1.19463 6.09047 1.19463 6.09439C1.19463 6.156 1.22235 6.20991 1.26451 6.24812V7.07896C1.26451 8.53795 2.24192 9.78566 3.62217 10.1396L3.31407 10.8659C3.23813 11.0429 3.23539 11.2384 3.30642 11.4162C3.37717 11.5936 3.51317 11.7325 3.68859 11.8069C3.78157 11.8466 3.87513 11.8668 3.96651 11.8668C4.25353 11.8668 4.51109 11.6949 4.62226 11.4296L5.0951 10.3123C5.10506 10.2885 5.11026 10.2647 5.11776 10.241H13.6253C13.6328 10.2648 13.638 10.2887 13.6481 10.3126L14.1205 11.429C14.2318 11.6949 14.4894 11.8668 14.7764 11.8668C14.8678 11.8668 14.9609 11.8466 15.0539 11.8072C15.2297 11.7326 15.3657 11.5936 15.4365 11.4162C15.5074 11.2384 15.5048 11.0429 15.4293 10.8668L15.1207 10.1396C16.5013 9.78518 17.4784 8.53764 17.4784 7.0788V6.15437C17.4861 6.14711 17.4937 6.13955 17.5012 6.13199C17.5017 6.13156 17.5021 6.13141 17.5022 6.13098C17.7314 5.89719 17.8575 5.58957 17.8575 5.26499C17.8575 4.58889 17.3109 4.03893 16.6393 4.03893L16.6393 4.03894ZM5.53453 1.32934C5.55229 1.3228 5.57048 1.31975 5.58897 1.31975C5.61221 1.31975 5.63531 1.32484 5.65682 1.33501C5.69566 1.35346 5.72511 1.38587 5.73969 1.42655L5.88782 1.83992L4.41939 2.37288L4.27126 1.95936C4.25668 1.91882 4.2587 1.87494 4.27689 1.83615C4.29508 1.79706 4.32728 1.76756 4.3677 1.75289L4.95112 1.54118H4.95126C4.95126 1.54118 4.95141 1.54118 4.95141 1.54104L5.53453 1.32934ZM15.4421 4.45551V7.43114H13.2127V4.45551H15.4421ZM1.53432 4.69206C1.68606 4.5395 1.88818 4.45551 2.10343 4.45551H12.799V5.88601H1.58931C1.4074 5.73446 1.29955 5.50734 1.29955 5.265C1.29955 5.05039 1.38343 4.84653 1.5346 4.69209L1.53432 4.69206ZM4.24122 11.2671C4.19459 11.3784 4.08659 11.4501 3.96647 11.4501C3.93052 11.4501 3.89255 11.4414 3.84982 11.4231C3.77647 11.392 3.71988 11.3345 3.69028 11.2608C3.66083 11.187 3.66213 11.1053 3.69432 11.0304L4.03852 10.2187C4.05209 10.2203 4.06551 10.2197 4.07909 10.2212C4.18939 10.2331 4.29955 10.2411 4.40884 10.2411H4.67507L4.24122 11.2671ZM15.0521 11.2608C15.0227 11.3345 14.9661 11.392 14.8926 11.4231C14.8924 11.4233 14.8924 11.4233 14.8921 11.4233C14.8498 11.4414 14.8119 11.4501 14.7759 11.4501C14.6558 11.4501 14.548 11.3784 14.501 11.2665L14.0673 10.2411H14.3336C14.443 10.2411 14.5535 10.233 14.6639 10.2212C14.6773 10.2197 14.6905 10.2203 14.7039 10.2187L15.0485 11.0313C15.0803 11.1054 15.0817 11.1869 15.0521 11.2608L15.0521 11.2608ZM17.2076 5.83819C17.1752 5.87073 17.1405 5.89907 17.1041 5.92566C17.0315 5.97855 17.001 6.07271 17.0288 6.15858C17.0367 6.18299 17.0488 6.20536 17.0641 6.22469V7.07892C17.0641 8.42208 16.1107 9.5598 14.7964 9.78428C14.6422 9.81087 14.4866 9.82453 14.3336 9.82453H13.7951L4.94713 9.82438H4.40862C4.25558 9.82438 4.09994 9.81072 3.94517 9.78384C2.63149 9.55965 1.67817 8.42194 1.67817 7.07875V6.30255H12.7988V7.63946C12.7988 7.75454 12.8913 7.84782 13.0058 7.84782H15.6492C15.7636 7.84782 15.8563 7.75469 15.8563 7.63946L15.8561 4.45545H16.6392C17.0826 4.45545 17.4434 4.81856 17.4434 5.26494C17.4434 5.47911 17.3598 5.68266 17.2078 5.83815L17.2076 5.83819Z" fill="black"/>
</svg>
