<svg width="19" height="12" viewBox="0 0 19 12" fill="none" xmlns="http://www.w3.org/2000/svg">
<path d="M15.8008 2.60001H8.05069C7.93017 2.60001 7.83546 2.69533 7.83546 2.81662V6.49991H2.23802V0.216612C2.23802 0.0953211 2.14331 0 2.02279 0H0.731101C0.610583 0 0.515869 0.0953211 0.515869 0.216612V11.4829C0.515869 11.6042 0.610583 11.6995 0.731101 11.6995H2.02279C2.14331 11.6995 2.23802 11.6042 2.23802 11.4829V9.09955H16.4466V11.483C16.4466 11.6043 16.5413 11.6996 16.6618 11.6996H17.9535C18.074 11.6996 18.1687 11.6043 18.1687 11.483L18.1689 4.98319C18.1689 3.67014 17.1054 2.59986 15.8007 2.59986L15.8008 2.60001ZM7.83553 8.6664H2.02294C1.90242 8.6664 1.8077 8.76172 1.8077 8.88302V11.2663H0.946629V0.433149H1.8077L1.80756 6.71645C1.80756 6.83774 1.90227 6.93306 2.02279 6.93306H7.83539L7.83553 8.6664ZM17.7384 11.2663H16.8773V8.88316C16.8773 8.76187 16.7826 8.66655 16.662 8.66655L8.26607 8.66641V3.03309L15.801 3.03323C16.8689 3.03323 17.7386 3.90852 17.7386 4.98319L17.7384 11.2663Z" fill="black"/>
</svg>
