<svg width="54" height="53" viewBox="0 0 54 53" fill="none" xmlns="http://www.w3.org/2000/svg">
<path d="M53.1647 50.8946H45.5372C46.9799 49.9666 47.9422 48.3464 47.9422 46.4986C47.9422 43.6127 45.5967 41.2674 42.711 41.2674C39.817 41.2674 37.4798 43.6128 37.4798 46.4986C37.4798 48.3464 38.4331 49.9662 39.8762 50.8946H16.9767C18.4194 49.9666 19.3816 48.3464 19.3816 46.4986C19.3816 43.6127 17.0361 41.2674 14.1504 41.2674C11.2564 41.2674 8.91925 43.6128 8.91925 46.4986C8.91925 48.3464 9.87249 49.9662 11.3156 50.8946H1.12278C0.658588 50.8946 0.287628 51.2741 0.287628 51.7297C0.287628 52.1854 0.658986 52.5649 1.12278 52.5649H53.1649C53.629 52.5649 54 52.1854 54 51.7297C54.0004 51.2741 53.629 50.8946 53.1649 50.8946H53.1647ZM42.7024 44.3893C43.867 44.3893 44.8117 45.3344 44.8117 46.4986C44.8117 47.6631 43.8666 48.6078 42.7024 48.6078C41.5379 48.6078 40.5932 47.6627 40.5932 46.4986C40.5846 45.334 41.5383 44.3893 42.7024 44.3893ZM14.1417 44.3893C15.3062 44.3893 16.2509 45.3344 16.2509 46.4986C16.2509 47.6631 15.3058 48.6078 14.1417 48.6078C12.9771 48.6078 12.0324 47.6627 12.0324 46.4986C12.0324 45.334 12.9771 44.3893 14.1417 44.3893Z" fill="#596B86"/>
<path d="M2.46415 15.1451L9.57695 15.2294C10.8006 15.2461 11.8043 14.2676 11.8128 13.044C11.8295 11.8204 10.8425 10.8167 9.62737 10.8081H9.59358C9.60212 10.7658 9.60212 10.7405 9.60212 10.6986C9.61883 9.07022 8.31136 7.7371 6.6826 7.71184C5.0962 7.69513 3.78863 8.92692 3.70401 10.4962C3.34975 10.2938 2.95314 10.1839 2.51418 10.1757C1.14765 10.1501 0.0172909 11.2556 0.000186884 12.6308C-0.0165164 14.0063 1.08858 15.1285 2.46406 15.1452L2.46415 15.1451Z" fill="#596B86"/>
<path d="M41.7498 2.5649C42.214 2.5649 42.5849 2.18539 42.5849 1.72975V0.835155C42.5849 0.370959 42.2136 0 41.7498 0C41.2856 0 40.9146 0.379511 40.9146 0.835155V1.7212C40.9061 2.18501 41.2856 2.56491 41.7498 2.56491V2.5649Z" fill="#596B86"/>
<path d="M38.4503 2.83489C38.6022 3.10486 38.8892 3.25675 39.1759 3.25675C39.3193 3.25675 39.463 3.22295 39.5978 3.1472C40.0029 2.91957 40.1377 2.40489 39.9015 1.99974L39.4544 1.22323C39.2268 0.818087 38.7121 0.683293 38.307 0.919468C37.9018 1.1471 37.767 1.66178 38.0032 2.06693L38.4503 2.83489Z" fill="#596B86"/>
<path d="M36.1044 4.58137L36.8724 5.02032C37.0076 5.09607 37.1509 5.12987 37.2942 5.12987C37.5813 5.12987 37.868 4.97799 38.0199 4.70801C38.2475 4.30287 38.1127 3.79672 37.7161 3.56055L36.9481 3.11345C36.543 2.87727 36.0368 3.02061 35.8007 3.41721C35.5645 3.83052 35.6997 4.34521 36.1044 4.58138L36.1044 4.58137Z" fill="#596B86"/>
<path d="M35.7077 7.71181H36.5938C37.058 7.71181 37.4289 7.3323 37.4289 6.87666C37.4289 6.41246 37.0576 6.0415 36.5938 6.0415H35.7077C35.2435 6.0415 34.8726 6.42101 34.8726 6.87666C34.8726 7.33192 35.2439 7.71181 35.7077 7.71181Z" fill="#596B86"/>
<path d="M43.9007 3.13867C44.0359 3.21441 44.1793 3.24821 44.3226 3.24821C44.6096 3.24821 44.8963 3.09633 45.0482 2.82636L45.4953 2.0584C45.7229 1.65325 45.5881 1.1471 45.1915 0.910934C44.7864 0.674759 44.2802 0.818096 44.0441 1.2147L43.597 1.98266C43.3604 2.39596 43.4956 2.9025 43.9007 3.13868L43.9007 3.13867Z" fill="#596B86"/>
<path d="M42.433 8.18419C42.0616 7.97327 41.6398 7.86372 41.1841 7.86372C39.7414 7.86372 38.5768 9.03644 38.5768 10.471C38.5768 11.9055 39.7495 13.0783 41.1841 13.0783H48.643C49.9256 13.0783 50.9632 12.0403 50.9632 10.7581C50.9632 9.47548 49.9171 8.4379 48.643 8.4379H48.6092C48.6178 8.39556 48.6178 8.36215 48.6178 8.31981C48.6178 6.60712 47.2256 5.22308 45.5211 5.22308C43.8589 5.23124 42.5005 6.5387 42.4329 8.18417L42.433 8.18419Z" fill="#596B86"/>
<path d="M38.4254 6.8678C38.4254 6.97734 38.4421 7.07873 38.4506 7.18827C39.193 6.5722 40.1381 6.1841 41.176 6.1841H41.2435C41.7159 5.23902 42.4924 4.47957 43.4457 4.02392C42.9477 3.72016 42.374 3.54303 41.7497 3.54303C39.9186 3.54342 38.4254 5.03695 38.4254 6.86778L38.4254 6.8678Z" fill="#596B86"/>
<path d="M3.0718 35.8082C3.0718 35.1416 3.18135 34.4918 3.40081 33.8846L4.86063 29.6828C4.47257 29.4466 4.01692 29.3114 3.53606 29.3114C2.11006 29.3114 0.954041 30.4674 0.954041 31.8934V39.2257C0.954041 40.4913 1.87388 41.5459 3.08041 41.7568L3.08002 35.8082L3.0718 35.8082Z" fill="#596B86"/>
<path d="M7.74653 26.4686L4.97925 34.4504C4.82737 34.8894 4.75162 35.3532 4.75162 35.8088V41.9851H8.92819C10.1938 40.5171 12.0668 39.5887 14.1509 39.5887C16.2349 39.5887 18.108 40.5252 19.3736 41.9851H37.489C38.7546 40.5171 40.6276 39.5887 42.7117 39.5887C44.7958 39.5887 46.6688 40.5252 47.9344 41.9851H50.8369V39.4707C50.8369 39.1502 50.8031 38.8464 50.7441 38.5427C50.3389 36.5177 48.6177 34.9566 46.4917 34.805L40.2988 34.3661L35.3713 25.7597C34.629 24.4771 33.262 23.6757 31.777 23.6757H11.6618C9.88974 23.6842 8.32889 24.7979 7.74666 26.4686L7.74653 26.4686ZM22.5714 27.6246C22.5714 27.0932 23.0018 26.6543 23.5417 26.6543H31.7597C32.1816 26.6543 32.5696 26.8819 32.7806 27.2447L36.3834 33.5391C36.7547 34.189 36.2905 34.9904 35.5397 34.9904H23.542C23.0106 34.9904 22.5716 34.56 22.5716 34.02L22.5714 27.6246ZM19.9645 27.6246V34.0285C19.9645 34.5599 19.5341 34.9988 18.9942 34.9988H9.29934C8.63277 34.9988 8.16858 34.3408 8.38804 33.7162L10.5564 27.4471C10.7168 26.9747 11.1639 26.6624 11.6615 26.6624H18.9937C19.5341 26.6543 19.9645 27.0847 19.9645 27.6246H19.9645Z" fill="#596B86"/>
<path d="M49.6127 46.4992C49.6127 47.0392 49.5451 47.5624 49.427 48.0685H51.469C52.0342 48.0685 52.4985 47.6129 52.4985 47.0391V44.6937C52.4985 44.1285 52.0428 43.6642 51.469 43.6642H48.997C49.3847 44.5332 49.6127 45.4864 49.6127 46.4991L49.6127 46.4992Z" fill="#596B86"/>
<path d="M4.09299 43.6641C3.5278 43.6641 3.06357 44.1198 3.06357 44.6935V47.039C3.06357 47.6042 3.51921 48.0684 4.09299 48.0684H7.41735C7.29926 47.5623 7.23167 47.039 7.23167 46.4991C7.23167 45.4864 7.45114 44.5331 7.84774 43.6642L4.09299 43.6641Z" fill="#596B86"/>
<path d="M20.4443 43.6641C20.8323 44.5331 21.0603 45.4867 21.0603 46.499C21.0603 47.039 20.9928 47.5622 20.8747 48.0683H35.9859C35.8678 47.5622 35.8002 47.0389 35.8002 46.499C35.8002 45.4863 36.0197 44.533 36.4163 43.6641H20.4443Z" fill="#596B86"/>
</svg>
